<svg width="256" height="256" viewBox="0 0 256 256" fill="none" xmlns="http://www.w3.org/2000/svg">
  <circle cx="128" cy="128" r="128" fill="#000000"/>
  <path d="M94.6 162.3c1.1-1.1 2.7-1.8 4.3-1.8h122.1c2.7 0 4.1 3.3 2.2 5.2l-26 26c-1.1 1.1-2.7 1.8-4.3 1.8H71c-2.7 0-4.1-3.3-2.2-5.2l25.8-26z" fill="#00FFA3"/>
  <path d="M94.6 64.2c1.1-1.1 2.7-1.8 4.3-1.8h122.1c2.7 0 4.1 3.3 2.2 5.2l-26 26c-1.1 1.1-2.7 1.8-4.3 1.8H71c-2.7 0-4.1-3.3-2.2-5.2l25.8-26z" fill="#00FFA3"/>
  <path d="M192.9 113.2c-1.1-1.1-2.7-1.8-4.3-1.8H66.5c-2.7 0-4.1 3.3-2.2 5.2l26 26c1.1 1.1 2.7 1.8 4.3 1.8h121.9c2.7 0 4.1-3.3 2.2-5.2l-25.8-26z" fill="#00FFA3"/>
</svg>