<svg width="256" height="256" viewBox="0 0 256 256" fill="none" xmlns="http://www.w3.org/2000/svg">
  <circle cx="128" cy="128" r="128" fill="#6BCEFF"/>
  <path d="M175.19 94.92c-4.6-18.44-21.29-29.25-41.52-26.96-20.23 2.3-37.59 16.03-42.19 34.46-4.6 18.44 4.17 34.67 24.4 36.97 20.23 2.3 43.32-8.15 47.92-26.58 1.15-4.6 11.39-17.89 11.39-17.89Z" fill="white"/>
  <path d="M137.58 152.73c-20.23-2.3-29-18.54-24.4-36.98 4.6-18.44 21.96-32.17 42.19-34.46 20.23-2.3 36.92 8.51 41.52 26.96 0 0-6.9 28.02-8.05 32.63-4.6 18.44-31.03 14.15-51.26 11.85Z" fill="white"/>
  <path d="M122.81 161.08c4.6 18.44 21.29 29.25 41.52 26.96 20.23-2.3 37.59-16.03 42.19-34.46 4.6-18.44-4.17-34.67-24.4-36.97-20.23-2.3-43.32 8.15-47.92 26.58-1.15 4.6-11.39 17.89-11.39 17.89Z" fill="white"/>
  <path d="M160.42 103.27c20.23 2.3 29 18.54 24.4 36.98-4.6 18.44-21.96 32.17-42.19 34.46-20.23 2.3-36.92-8.51-41.52-26.96 0 0 6.9-28.02 8.05-32.63 4.6-18.44 31.03-14.15 51.26-11.85Z" fill="white"/>
  <path d="M80.81 161.08c4.6 18.44 21.29 29.25 41.52 26.96 20.23-2.3 37.59-16.03 42.19-34.46 4.6-18.44-4.17-34.67-24.4-36.97-20.23-2.3-43.32 8.15-47.92 26.58-1.15 4.6-11.39 17.89-11.39 17.89Z" fill="white"/>
  <path d="M118.42 103.27c20.23 2.3 29 18.54 24.4 36.98-4.6 18.44-21.96 32.17-42.19 34.46-20.23 2.3-36.92-8.51-41.52-26.96 0 0 6.9-28.02 8.05-32.63 4.6-18.44 31.03-14.15 51.26-11.85Z" fill="white"/>
  <path d="M80.81 94.92c-4.6-18.44-21.29-29.25-41.52-26.96-20.23 2.3-37.59 16.03-42.19 34.46-4.6 18.44 4.17 34.67 24.4 36.97 20.23 2.3 43.32-8.15 47.92-26.58 1.15-4.6 11.39-17.89 11.39-17.89Z" fill="white"/>
  <path d="M76.42 152.73c-20.23-2.3-29-18.54-24.4-36.98 4.6-18.44 21.96-32.17 42.19-34.46 20.23-2.3 36.92 8.51 41.52 26.96 0 0-6.9 28.02-8.05 32.63-4.6 18.44-31.03 14.15-51.26 11.85Z" fill="white"/>
</svg>
